<?xml version="1.0" encoding="utf-8"?>
<!-- Generator: Adobe Illustrator 27.1.0, SVG Export Plug-In . SVG Version: 6.00 Build 0)  -->
<svg version="1.1" id="Layer_1" xmlns="http://www.w3.org/2000/svg" xmlns:xlink="http://www.w3.org/1999/xlink" x="0px" y="0px"
	 viewBox="0 0 595.3 194.9" style="enable-background:new 0 0 595.3 194.9;" xml:space="preserve">
<style type="text/css">
	.st0{fill:url(#SVGID_1_);}
	.st1{fill:url(#SVGID_00000114763431052413984380000013000721897823147948_);}
	.st2{fill:url(#SVGID_00000039845525763817131390000006722155079182187966_);}
	.st3{fill:url(#SVGID_00000015340225455765321080000009379757810376018078_);}
	.st4{fill:url(#SVGID_00000165931421189801626540000006810996706969204110_);}
	.st5{fill:url(#SVGID_00000018199945314004783780000005604927815998323851_);}
	.st6{fill:url(#SVGID_00000045604602376256118780000011592861896765574543_);}
	.st7{fill:url(#SVGID_00000119817330536154306140000018078282976824208519_);}
	.st8{fill:url(#SVGID_00000062887442892428699460000009995160661558907795_);}
	.st9{fill:url(#SVGID_00000041253055914795703870000001622654680818029736_);}
</style>
<g>
	<g>
		<linearGradient id="SVGID_1_" gradientUnits="userSpaceOnUse" x1="77.7109" y1="55.2043" x2="205.9075" y2="105.6623">
			<stop  offset="0.2972" style="stop-color:#FFB800"/>
			<stop  offset="1" style="stop-color:#FF6D00"/>
		</linearGradient>
		<path class="st0" d="M85.1,111.4c-9.4,0-14.9-1.1-16.6-3.3c-1.6-2,0.2-5.9,5.4-11.7l11.1-13h23.1l-14.1,16h44.6l44.6-51.1h22.6
			l-41.8,48.1c-5.3,6-10.3,9.9-15.2,11.7c-5.2,2.2-12.5,3.3-21.7,3.3H85.1z"/>
		
			<linearGradient id="SVGID_00000036970349264878211170000006558693026888685220_" gradientUnits="userSpaceOnUse" x1="178.1677" y1="38.2004" x2="412.5257" y2="124.9837">
			<stop  offset="0" style="stop-color:#FFB800"/>
			<stop  offset="1" style="stop-color:#FF6D00"/>
		</linearGradient>
		<polygon style="fill:url(#SVGID_00000036970349264878211170000006558693026888685220_);" points="415.7,48.4 406,59.8 360.9,59.8 
			316,111.4 293.2,111.4 338.3,59.8 295.6,59.8 240,78 283.7,111.4 247,111.4 212.8,83.7 188.6,111.4 165.8,111.4 220.7,48.4 
			243.5,48.4 220.7,74.7 297.6,48.4 		"/>
	</g>
	<g>
		<g>
			
				<linearGradient id="SVGID_00000077289195631533100140000002412650990103550381_" gradientUnits="userSpaceOnUse" x1="27.0917" y1="141.5814" x2="209.9166" y2="175.239">
				<stop  offset="0.2043" style="stop-color:#FFB800"/>
				<stop  offset="1" style="stop-color:#FF6D00"/>
			</linearGradient>
			<path style="fill:url(#SVGID_00000077289195631533100140000002412650990103550381_);" d="M209.8,134.6l-7.5,8.8h-34.7L133,183.1
				h-17.6l34.7-39.8h-34.5l0.2-0.2H71.5l-9,10.2h46.9c7.2,0,11.5,0.8,12.8,2.5c1,1.8-0.4,4.8-4,9l-5.9,6.7c-3.8,4.3-7.7,7.3-11.7,9
				c-4.1,1.7-9.7,2.5-17,2.5H37.2c-7.2,0-11.5-0.8-12.8-2.5c-1.1-1.1-0.4-3.4,2.1-6.7h68.4l9.6-11.1H57.7c-7.2,0-11.5-0.8-12.8-2.3
				c-1.1-1.7,0.3-4.7,4.2-9.2l4.6-5.2c3.9-4.5,7.8-7.5,11.7-9c3.9-1.7,9.5-2.5,17-2.5h40.8l0,0H209.8z"/>
			
				<linearGradient id="SVGID_00000036932930162716564510000007980271274637394058_" gradientUnits="userSpaceOnUse" x1="185.6092" y1="147.6208" x2="305.3002" y2="169.0146">
				<stop  offset="0.1071" style="stop-color:#FFB800"/>
				<stop  offset="1" style="stop-color:#FF6D00"/>
			</linearGradient>
			<path style="fill:url(#SVGID_00000036932930162716564510000007980271274637394058_);" d="M237.8,134.6l-34.3,39.3h49.8l34.3-39.3
				h17.6l-32.4,37c-3.9,4.6-7.7,7.6-11.5,9c-4.2,1.7-9.8,2.5-16.9,2.5h-47.5c-7.3,0-11.5-0.8-12.8-2.5c-1.3-1.5,0.1-4.5,4.2-9
				l32.2-37H237.8z"/>
			
				<linearGradient id="SVGID_00000101789117088701994640000015546439473877655474_" gradientUnits="userSpaceOnUse" x1="280.656" y1="145.2611" x2="394.9376" y2="178.1342">
				<stop  offset="0.1274" style="stop-color:#FFB800"/>
				<stop  offset="1" style="stop-color:#FF6D00"/>
			</linearGradient>
			<path style="fill:url(#SVGID_00000101789117088701994640000015546439473877655474_);" d="M276.8,183.1l8-9.2h40.2
				c11.7,0,21.3-1.2,28.7-3.6c7.1-2.5,13.1-6.5,18-11.9c4.2-4.9,5.4-8.6,3.6-11.3c-2.1-2.5-7.2-3.8-15.3-3.8h-48.3l7.5-8.8h48.3
				c13.8,0,22.6,2.1,26.4,6.3c3.6,4.2,2.2,10-4.2,17.6c-4.2,4.9-9.2,9-15.1,12.4c-6.4,3.8-13,6.6-19.7,8.6
				c-4.8,1.4-9.6,2.4-14.6,2.9c-7.2,0.6-13.7,0.8-19.5,0.8L276.8,183.1L276.8,183.1z"/>
			
				<linearGradient id="SVGID_00000170240450967916146300000007255788970407565199_" gradientUnits="userSpaceOnUse" x1="383.1854" y1="146.4495" x2="435.7529" y2="174.5779">
				<stop  offset="0.1299" style="stop-color:#FFB800"/>
				<stop  offset="1" style="stop-color:#FF6D00"/>
			</linearGradient>
			<path style="fill:url(#SVGID_00000170240450967916146300000007255788970407565199_);" d="M376.5,183.1l42.3-48.5h17.4l-42,48.5
				H376.5z"/>
			
				<linearGradient id="SVGID_00000080177454989193140730000004963982059952157613_" gradientUnits="userSpaceOnUse" x1="418.6145" y1="139.3087" x2="535.0944" y2="180.8327">
				<stop  offset="0.2313" style="stop-color:#FFB800"/>
				<stop  offset="1" style="stop-color:#FF6D00"/>
			</linearGradient>
			<path style="fill:url(#SVGID_00000080177454989193140730000004963982059952157613_);" d="M438.3,146.1c4.2-4.6,8.1-7.6,11.7-9
				c3.9-1.7,9.5-2.5,17-2.5h55.2c7.2,0,11.5,0.8,12.8,2.5c1.1,1.7-0.2,4.7-4,9l-22.4,25.5c-4,4.6-8,7.6-11.7,9
				c-4,1.7-9.7,2.5-17,2.5h-55.2c-7.4,0-11.6-0.8-12.5-2.5c-1.3-1.4,0.1-4.4,4-9L438.3,146.1z M431.6,173.9h57.5l26.8-30.6h-57.5
				L431.6,173.9z"/>
		</g>
		
			<linearGradient id="SVGID_00000007389093742798430140000005483795470500182956_" gradientUnits="userSpaceOnUse" x1="429.1463" y1="106.7069" x2="448.062" y2="117.5511">
			<stop  offset="0" style="stop-color:#FFB800"/>
			<stop  offset="1" style="stop-color:#FF6D00"/>
		</linearGradient>
		<circle style="fill:url(#SVGID_00000007389093742798430140000005483795470500182956_);" cx="437.4" cy="111.4" r="10.9"/>
		
			<linearGradient id="SVGID_00000103950499543114396760000015120184216492191409_" gradientUnits="userSpaceOnUse" x1="464.5648" y1="65.1778" x2="503.6089" y2="86.7545">
			<stop  offset="0" style="stop-color:#FFB800"/>
			<stop  offset="1" style="stop-color:#FF6D00"/>
		</linearGradient>
		<circle style="fill:url(#SVGID_00000103950499543114396760000015120184216492191409_);" cx="482.2" cy="74.9" r="23.1"/>
		
			<linearGradient id="SVGID_00000111902035917920456540000007404174178090998460_" gradientUnits="userSpaceOnUse" x1="518.34" y1="27.2905" x2="571.1149" y2="51.9545">
			<stop  offset="0" style="stop-color:#FFB800"/>
			<stop  offset="1" style="stop-color:#FF6D00"/>
		</linearGradient>
		<circle style="fill:url(#SVGID_00000111902035917920456540000007404174178090998460_);" cx="542.2" cy="38.5" r="29.1"/>
	</g>
</g>
</svg>
